<svg width="429" height="525" viewBox="0 0 429 525" fill="none" xmlns="http://www.w3.org/2000/svg">
<g clip-path="url(#clip0_66_369)">
<rect width="428.565" height="524.992" fill="white"/>
<rect width="428.565" height="524.992" fill="#14192D"/>
<rect y="257.139" width="428.565" height="85.7131" fill="#D90062"/>
<path d="M189.693 48.5339V71.355H185.289V61.6158H174.939V71.355H170.504V48.5339H174.939V57.7587H185.289V48.5339H189.693ZM201.532 71.6764C200.16 71.6764 198.928 71.4514 197.835 71.0014C196.742 70.53 195.81 69.8871 195.039 69.0729C194.289 68.2586 193.71 67.3265 193.303 66.2765C192.896 65.2265 192.692 64.1229 192.692 62.9658C192.692 61.7873 192.896 60.673 193.303 59.623C193.71 58.573 194.289 57.6409 195.039 56.8266C195.81 56.0123 196.742 55.3802 197.835 54.9302C198.928 54.4588 200.16 54.2231 201.532 54.2231C202.903 54.2231 204.124 54.4588 205.196 54.9302C206.289 55.3802 207.221 56.0123 207.992 56.8266C208.764 57.6409 209.342 58.573 209.728 59.623C210.135 60.673 210.339 61.7873 210.339 62.9658C210.339 64.1229 210.135 65.2265 209.728 66.2765C209.342 67.3265 208.764 68.2586 207.992 69.0729C207.242 69.8871 206.321 70.53 205.228 71.0014C204.135 71.4514 202.903 71.6764 201.532 71.6764ZM197.128 62.9658C197.128 63.9515 197.321 64.8301 197.707 65.6015C198.092 66.3515 198.617 66.9408 199.282 67.3693C199.946 67.7979 200.696 68.0122 201.532 68.0122C202.346 68.0122 203.085 67.7979 203.749 67.3693C204.414 66.9193 204.939 66.3193 205.324 65.5693C205.732 64.7979 205.935 63.9194 205.935 62.9337C205.935 61.9694 205.732 61.1016 205.324 60.3301C204.939 59.5587 204.414 58.9587 203.749 58.5302C203.085 58.1016 202.346 57.8873 201.532 57.8873C200.696 57.8873 199.946 58.1123 199.282 58.5623C198.617 58.9909 198.092 59.5909 197.707 60.3623C197.321 61.1123 197.128 61.9801 197.128 62.9658ZM239.41 71.355H235.103V61.9051C235.103 60.5766 234.867 59.6016 234.395 58.9802C233.945 58.3373 233.313 58.0159 232.499 58.0159C231.663 58.0159 230.86 58.348 230.088 59.0123C229.338 59.6551 228.803 60.5016 228.481 61.5515V71.355H224.174V61.9051C224.174 60.5551 223.938 59.5694 223.467 58.948C223.017 58.3266 222.385 58.0159 221.571 58.0159C220.735 58.0159 219.931 58.3373 219.16 58.9802C218.41 59.623 217.874 60.4694 217.553 61.5194V71.355H213.246V54.5124H217.135V57.6302C217.778 56.5373 218.635 55.7016 219.706 55.1231C220.778 54.5231 222.01 54.2231 223.403 54.2231C224.796 54.2231 225.878 54.5659 226.649 55.2516C227.442 55.9373 227.946 56.7838 228.16 57.7909C228.846 56.6338 229.713 55.7552 230.763 55.1552C231.835 54.5338 233.035 54.2231 234.363 54.2231C235.413 54.2231 236.26 54.4159 236.903 54.8016C237.567 55.1659 238.081 55.6695 238.445 56.3123C238.81 56.9338 239.056 57.6409 239.185 58.4337C239.335 59.2266 239.41 60.0301 239.41 60.8444V71.355ZM250.97 71.6764C249.62 71.6764 248.399 71.4514 247.306 71.0014C246.213 70.53 245.281 69.8979 244.51 69.105C243.738 68.2907 243.138 67.3693 242.71 66.3408C242.302 65.2908 242.099 64.1872 242.099 63.0301C242.099 61.423 242.452 59.9551 243.16 58.6266C243.888 57.298 244.917 56.2373 246.245 55.4445C247.595 54.6302 249.181 54.2231 251.002 54.2231C252.845 54.2231 254.42 54.6302 255.727 55.4445C257.034 56.2373 258.031 57.298 258.716 58.6266C259.424 59.9337 259.777 61.348 259.777 62.8694C259.777 63.1265 259.766 63.3944 259.745 63.6729C259.724 63.9301 259.702 64.1444 259.681 64.3158H246.663C246.749 65.1729 246.995 65.9229 247.402 66.5658C247.831 67.2086 248.367 67.7015 249.009 68.0443C249.674 68.3657 250.381 68.5264 251.131 68.5264C251.988 68.5264 252.792 68.3229 253.542 67.9157C254.313 67.4872 254.838 66.93 255.116 66.2443L258.813 67.2729C258.406 68.13 257.816 68.8907 257.045 69.555C256.295 70.2193 255.406 70.7443 254.377 71.13C253.349 71.4943 252.213 71.6764 250.97 71.6764ZM246.567 61.5837H255.374C255.288 60.7266 255.041 59.9873 254.634 59.3659C254.249 58.723 253.734 58.2302 253.092 57.8873C252.449 57.523 251.731 57.3409 250.938 57.3409C250.167 57.3409 249.459 57.523 248.817 57.8873C248.195 58.2302 247.681 58.723 247.274 59.3659C246.888 59.9873 246.652 60.7266 246.567 61.5837Z" fill="#D90062"/>
<path d="M169.299 129.39H173.799L182.188 152.211H177.624L175.503 146.522H167.531L165.442 152.211H160.878L169.299 129.39ZM174.699 143.404L171.549 133.987L168.271 143.404H174.699ZM191.614 152.533C190.243 152.533 189.011 152.308 187.918 151.858C186.825 151.386 185.893 150.744 185.121 149.929C184.35 149.094 183.75 148.151 183.321 147.101C182.914 146.051 182.711 144.947 182.711 143.79C182.711 142.204 183.064 140.758 183.771 139.451C184.5 138.122 185.529 137.062 186.857 136.269C188.186 135.476 189.761 135.08 191.582 135.08C193.403 135.08 194.968 135.476 196.275 136.269C197.582 137.062 198.557 138.101 199.2 139.387L194.989 140.672C194.625 140.051 194.143 139.579 193.543 139.258C192.943 138.915 192.278 138.744 191.55 138.744C190.736 138.744 189.986 138.958 189.3 139.387C188.636 139.794 188.111 140.383 187.725 141.154C187.339 141.904 187.146 142.783 187.146 143.79C187.146 144.776 187.339 145.654 187.725 146.426C188.132 147.176 188.668 147.776 189.332 148.226C189.996 148.654 190.736 148.869 191.55 148.869C192.064 148.869 192.546 148.783 192.996 148.611C193.468 148.44 193.886 148.204 194.25 147.904C194.614 147.604 194.882 147.261 195.053 146.876L199.264 148.161C198.878 148.997 198.31 149.747 197.561 150.411C196.832 151.076 195.964 151.601 194.957 151.986C193.971 152.351 192.857 152.533 191.614 152.533ZM209.568 152.533C208.218 152.533 206.997 152.308 205.904 151.858C204.811 151.386 203.879 150.754 203.107 149.961C202.336 149.147 201.736 148.226 201.307 147.197C200.9 146.147 200.697 145.044 200.697 143.887C200.697 142.279 201.05 140.812 201.757 139.483C202.486 138.154 203.514 137.094 204.843 136.301C206.193 135.487 207.779 135.08 209.6 135.08C211.443 135.08 213.018 135.487 214.325 136.301C215.632 137.094 216.629 138.154 217.314 139.483C218.021 140.79 218.375 142.204 218.375 143.726C218.375 143.983 218.364 144.251 218.343 144.529C218.321 144.787 218.3 145.001 218.279 145.172H205.261C205.347 146.029 205.593 146.779 206 147.422C206.429 148.065 206.964 148.558 207.607 148.901C208.272 149.222 208.979 149.383 209.729 149.383C210.586 149.383 211.389 149.179 212.139 148.772C212.911 148.344 213.436 147.786 213.714 147.101L217.411 148.129C217.004 148.986 216.414 149.747 215.643 150.411C214.893 151.076 214.004 151.601 212.975 151.986C211.946 152.351 210.811 152.533 209.568 152.533ZM205.164 142.44H213.971C213.886 141.583 213.639 140.844 213.232 140.222C212.846 139.579 212.332 139.087 211.689 138.744C211.047 138.379 210.329 138.197 209.536 138.197C208.764 138.197 208.057 138.379 207.414 138.744C206.793 139.087 206.279 139.579 205.872 140.222C205.486 140.844 205.25 141.583 205.164 142.44ZM231.027 139.097C229.72 139.097 228.552 139.354 227.524 139.869C226.495 140.362 225.756 141.079 225.306 142.022V152.211H220.999V135.369H224.952V138.969C225.552 137.812 226.313 136.901 227.234 136.237C228.156 135.572 229.131 135.208 230.159 135.144C230.395 135.144 230.577 135.144 230.706 135.144C230.834 135.144 230.942 135.155 231.027 135.176V139.097ZM241.052 152.533C239.681 152.533 238.448 152.308 237.356 151.858C236.263 151.386 235.331 150.744 234.559 149.929C233.788 149.094 233.188 148.151 232.759 147.101C232.352 146.051 232.148 144.947 232.148 143.79C232.148 142.204 232.502 140.758 233.209 139.451C233.938 138.122 234.966 137.062 236.295 136.269C237.623 135.476 239.198 135.08 241.02 135.08C242.841 135.08 244.405 135.476 245.713 136.269C247.02 137.062 247.995 138.101 248.638 139.387L244.427 140.672C244.063 140.051 243.58 139.579 242.98 139.258C242.38 138.915 241.716 138.744 240.988 138.744C240.173 138.744 239.423 138.958 238.738 139.387C238.073 139.794 237.548 140.383 237.163 141.154C236.777 141.904 236.584 142.783 236.584 143.79C236.584 144.776 236.777 145.654 237.163 146.426C237.57 147.176 238.106 147.776 238.77 148.226C239.434 148.654 240.173 148.869 240.988 148.869C241.502 148.869 241.984 148.783 242.434 148.611C242.905 148.44 243.323 148.204 243.688 147.904C244.052 147.604 244.32 147.261 244.491 146.876L248.702 148.161C248.316 148.997 247.748 149.747 246.998 150.411C246.27 151.076 245.402 151.601 244.395 151.986C243.409 152.351 242.295 152.533 241.052 152.533ZM250.195 147.229C250.195 146.137 250.495 145.183 251.095 144.369C251.716 143.533 252.573 142.89 253.666 142.44C254.759 141.99 256.013 141.765 257.427 141.765C258.134 141.765 258.852 141.819 259.581 141.926C260.309 142.033 260.941 142.204 261.477 142.44V141.54C261.477 140.469 261.155 139.644 260.513 139.065C259.891 138.487 258.959 138.197 257.716 138.197C256.795 138.197 255.916 138.358 255.081 138.679C254.245 139.001 253.366 139.472 252.445 140.094L251.063 137.265C252.177 136.537 253.313 135.99 254.47 135.626C255.648 135.262 256.881 135.08 258.166 135.08C260.566 135.08 262.43 135.68 263.759 136.88C265.109 138.079 265.784 139.794 265.784 142.022V147.39C265.784 147.84 265.859 148.161 266.009 148.354C266.18 148.547 266.448 148.665 266.813 148.708V152.211C266.427 152.276 266.073 152.329 265.752 152.372C265.452 152.415 265.195 152.436 264.98 152.436C264.123 152.436 263.47 152.244 263.02 151.858C262.591 151.472 262.323 151.001 262.216 150.444L262.12 149.576C261.391 150.519 260.48 151.247 259.388 151.761C258.295 152.276 257.181 152.533 256.045 152.533C254.931 152.533 253.923 152.308 253.023 151.858C252.145 151.386 251.448 150.754 250.934 149.961C250.441 149.147 250.195 148.236 250.195 147.229ZM260.673 148.097C260.909 147.84 261.102 147.583 261.252 147.326C261.402 147.069 261.477 146.833 261.477 146.619V144.915C260.963 144.701 260.406 144.54 259.806 144.433C259.206 144.304 258.638 144.24 258.102 144.24C256.988 144.24 256.066 144.487 255.338 144.979C254.631 145.451 254.277 146.083 254.277 146.876C254.277 147.304 254.395 147.711 254.631 148.097C254.866 148.483 255.209 148.794 255.659 149.029C256.109 149.265 256.645 149.383 257.266 149.383C257.909 149.383 258.541 149.265 259.163 149.029C259.784 148.772 260.288 148.461 260.673 148.097Z" fill="#D90062"/>
<path d="M160.778 216.226C160.628 216.076 160.349 215.872 159.942 215.615C159.556 215.358 159.074 215.111 158.496 214.876C157.939 214.64 157.328 214.436 156.664 214.265C155.999 214.072 155.324 213.976 154.639 213.976C153.439 213.976 152.528 214.201 151.907 214.651C151.307 215.101 151.007 215.733 151.007 216.547C151.007 217.169 151.199 217.661 151.585 218.026C151.971 218.39 152.549 218.701 153.321 218.958C154.092 219.215 155.056 219.494 156.214 219.794C157.714 220.158 159.01 220.608 160.103 221.144C161.217 221.658 162.063 222.344 162.642 223.201C163.242 224.036 163.542 225.151 163.542 226.543C163.542 227.765 163.317 228.815 162.867 229.693C162.417 230.551 161.796 231.247 161.003 231.783C160.21 232.318 159.31 232.715 158.303 232.972C157.296 233.208 156.224 233.325 155.089 233.325C153.953 233.325 152.817 233.208 151.682 232.972C150.546 232.736 149.453 232.404 148.403 231.976C147.353 231.526 146.389 230.99 145.51 230.368L147.471 226.543C147.664 226.736 148.007 226.993 148.499 227.315C148.992 227.615 149.592 227.926 150.299 228.247C151.007 228.547 151.778 228.804 152.614 229.018C153.449 229.233 154.296 229.34 155.153 229.34C156.353 229.34 157.264 229.136 157.885 228.729C158.506 228.322 158.817 227.743 158.817 226.993C158.817 226.308 158.571 225.772 158.078 225.386C157.585 225.001 156.899 224.668 156.021 224.39C155.142 224.09 154.103 223.768 152.903 223.426C151.467 223.019 150.267 222.569 149.303 222.076C148.339 221.561 147.621 220.919 147.149 220.147C146.678 219.376 146.442 218.411 146.442 217.254C146.442 215.69 146.807 214.383 147.535 213.333C148.285 212.262 149.292 211.458 150.557 210.922C151.821 210.365 153.224 210.087 154.767 210.087C155.839 210.087 156.846 210.204 157.789 210.44C158.753 210.676 159.653 210.987 160.489 211.372C161.324 211.758 162.074 212.176 162.738 212.626L160.778 216.226ZM174.287 233.39C172.937 233.39 171.715 233.165 170.622 232.715C169.53 232.243 168.597 231.611 167.826 230.818C167.055 230.004 166.455 229.083 166.026 228.054C165.619 227.004 165.415 225.901 165.415 224.743C165.415 223.136 165.769 221.669 166.476 220.34C167.205 219.011 168.233 217.951 169.562 217.158C170.912 216.344 172.497 215.936 174.319 215.936C176.162 215.936 177.737 216.344 179.044 217.158C180.351 217.951 181.347 219.011 182.033 220.34C182.74 221.647 183.094 223.061 183.094 224.583C183.094 224.84 183.083 225.108 183.062 225.386C183.04 225.643 183.019 225.858 182.997 226.029H169.98C170.065 226.886 170.312 227.636 170.719 228.279C171.147 228.922 171.683 229.415 172.326 229.758C172.99 230.079 173.697 230.24 174.447 230.24C175.304 230.24 176.108 230.036 176.858 229.629C177.629 229.201 178.154 228.643 178.433 227.958L182.129 228.986C181.722 229.843 181.133 230.604 180.362 231.268C179.612 231.933 178.722 232.458 177.694 232.843C176.665 233.208 175.529 233.39 174.287 233.39ZM169.883 223.297H178.69C178.604 222.44 178.358 221.701 177.951 221.079C177.565 220.436 177.051 219.944 176.408 219.601C175.765 219.236 175.047 219.054 174.255 219.054C173.483 219.054 172.776 219.236 172.133 219.601C171.512 219.944 170.997 220.436 170.59 221.079C170.205 221.701 169.969 222.44 169.883 223.297ZM195.746 219.954C194.439 219.954 193.271 220.211 192.242 220.726C191.214 221.219 190.475 221.936 190.025 222.879V233.068H185.718V216.226H189.671V219.826C190.271 218.669 191.032 217.758 191.953 217.094C192.875 216.429 193.85 216.065 194.878 216.001C195.114 216.001 195.296 216.001 195.425 216.001C195.553 216.001 195.66 216.011 195.746 216.033V219.954ZM202.68 233.068L196.476 216.226H200.944L205.187 229.147L209.462 216.226H213.544L207.372 233.068H202.68ZM215.82 233.068V216.226H220.127V233.068H215.82ZM215.82 213.879V209.604H220.127V213.879H215.82ZM231.855 233.39C230.484 233.39 229.251 233.165 228.159 232.715C227.066 232.243 226.134 231.601 225.362 230.786C224.591 229.951 223.991 229.008 223.562 227.958C223.155 226.908 222.951 225.804 222.951 224.647C222.951 223.061 223.305 221.615 224.012 220.308C224.741 218.979 225.769 217.919 227.098 217.126C228.426 216.333 230.001 215.936 231.823 215.936C233.644 215.936 235.208 216.333 236.516 217.126C237.823 217.919 238.798 218.958 239.441 220.244L235.23 221.529C234.866 220.908 234.383 220.436 233.783 220.115C233.183 219.772 232.519 219.601 231.791 219.601C230.976 219.601 230.226 219.815 229.541 220.244C228.876 220.651 228.351 221.24 227.966 222.011C227.58 222.761 227.387 223.64 227.387 224.647C227.387 225.633 227.58 226.511 227.966 227.283C228.373 228.033 228.909 228.633 229.573 229.083C230.237 229.511 230.976 229.726 231.791 229.726C232.305 229.726 232.787 229.64 233.237 229.468C233.708 229.297 234.126 229.061 234.491 228.761C234.855 228.461 235.123 228.118 235.294 227.733L239.505 229.018C239.119 229.854 238.551 230.604 237.801 231.268C237.073 231.933 236.205 232.458 235.198 232.843C234.212 233.208 233.098 233.39 231.855 233.39ZM242.155 233.068V216.226H246.462V233.068H242.155ZM242.155 213.879V209.604H246.462V213.879H242.155ZM258.126 233.39C256.755 233.39 255.523 233.165 254.43 232.715C253.337 232.243 252.405 231.601 251.633 230.786C250.883 229.972 250.305 229.04 249.898 227.99C249.49 226.94 249.287 225.836 249.287 224.679C249.287 223.501 249.49 222.386 249.898 221.336C250.305 220.286 250.883 219.354 251.633 218.54C252.405 217.726 253.337 217.094 254.43 216.644C255.523 216.172 256.755 215.936 258.126 215.936C259.497 215.936 260.719 216.172 261.79 216.644C262.883 217.094 263.815 217.726 264.587 218.54C265.358 219.354 265.937 220.286 266.322 221.336C266.73 222.386 266.933 223.501 266.933 224.679C266.933 225.836 266.73 226.94 266.322 227.99C265.937 229.04 265.358 229.972 264.587 230.786C263.837 231.601 262.915 232.243 261.822 232.715C260.73 233.165 259.497 233.39 258.126 233.39ZM253.723 224.679C253.723 225.665 253.915 226.543 254.301 227.315C254.687 228.065 255.212 228.654 255.876 229.083C256.54 229.511 257.29 229.726 258.126 229.726C258.94 229.726 259.68 229.511 260.344 229.083C261.008 228.633 261.533 228.033 261.919 227.283C262.326 226.511 262.53 225.633 262.53 224.647C262.53 223.683 262.326 222.815 261.919 222.044C261.533 221.272 261.008 220.672 260.344 220.244C259.68 219.815 258.94 219.601 258.126 219.601C257.29 219.601 256.54 219.826 255.876 220.276C255.212 220.704 254.687 221.304 254.301 222.076C253.915 222.826 253.723 223.693 253.723 224.679ZM276.044 233.39C274.608 233.39 273.237 233.154 271.929 232.683C270.622 232.211 269.497 231.515 268.555 230.593L270.097 227.797C271.104 228.611 272.09 229.211 273.054 229.597C274.04 229.983 274.983 230.176 275.883 230.176C276.719 230.176 277.383 230.026 277.876 229.726C278.39 229.426 278.647 228.976 278.647 228.376C278.647 227.968 278.508 227.658 278.229 227.443C277.951 227.208 277.544 227.004 277.008 226.833C276.494 226.661 275.862 226.468 275.112 226.254C273.869 225.847 272.829 225.451 271.994 225.065C271.158 224.679 270.526 224.197 270.097 223.618C269.69 223.019 269.487 222.258 269.487 221.336C269.487 220.222 269.765 219.269 270.322 218.476C270.901 217.661 271.694 217.029 272.701 216.579C273.729 216.129 274.929 215.904 276.301 215.904C277.501 215.904 278.637 216.097 279.708 216.483C280.779 216.847 281.754 217.447 282.633 218.283L280.897 221.015C280.04 220.351 279.226 219.869 278.454 219.569C277.683 219.247 276.901 219.086 276.108 219.086C275.658 219.086 275.229 219.14 274.822 219.247C274.437 219.354 274.115 219.536 273.858 219.794C273.622 220.029 273.504 220.372 273.504 220.822C273.504 221.229 273.612 221.551 273.826 221.786C274.062 222.001 274.404 222.194 274.854 222.365C275.326 222.536 275.894 222.729 276.558 222.944C277.908 223.329 279.044 223.726 279.965 224.133C280.908 224.54 281.615 225.043 282.086 225.643C282.558 226.222 282.794 227.026 282.794 228.054C282.794 229.726 282.183 231.033 280.961 231.976C279.74 232.918 278.101 233.39 276.044 233.39Z" fill="#D90062"/>
<path d="M140.967 313.925V291.104H150.641C151.691 291.104 152.656 291.318 153.534 291.747C154.413 292.175 155.173 292.754 155.816 293.482C156.481 294.211 156.995 295.025 157.359 295.925C157.723 296.825 157.906 297.746 157.906 298.689C157.906 299.975 157.606 301.196 157.006 302.354C156.406 303.511 155.581 304.454 154.531 305.182C153.481 305.911 152.238 306.275 150.802 306.275H145.402V313.925H140.967ZM145.402 302.386H150.545C151.081 302.386 151.563 302.236 151.991 301.936C152.42 301.636 152.763 301.207 153.02 300.65C153.277 300.071 153.406 299.418 153.406 298.689C153.406 297.896 153.256 297.221 152.956 296.664C152.677 296.107 152.302 295.689 151.831 295.411C151.381 295.132 150.888 294.993 150.352 294.993H145.402V302.386ZM168.008 314.246C166.637 314.246 165.405 314.021 164.312 313.571C163.219 313.1 162.287 312.457 161.515 311.643C160.765 310.828 160.187 309.896 159.78 308.846C159.372 307.796 159.169 306.693 159.169 305.536C159.169 304.357 159.372 303.243 159.78 302.193C160.187 301.143 160.765 300.211 161.515 299.396C162.287 298.582 163.219 297.95 164.312 297.5C165.405 297.029 166.637 296.793 168.008 296.793C169.379 296.793 170.601 297.029 171.672 297.5C172.765 297.95 173.697 298.582 174.469 299.396C175.24 300.211 175.819 301.143 176.204 302.193C176.612 303.243 176.815 304.357 176.815 305.536C176.815 306.693 176.612 307.796 176.204 308.846C175.819 309.896 175.24 310.828 174.469 311.643C173.719 312.457 172.797 313.1 171.704 313.571C170.612 314.021 169.379 314.246 168.008 314.246ZM163.605 305.536C163.605 306.521 163.797 307.4 164.183 308.171C164.569 308.921 165.094 309.511 165.758 309.939C166.422 310.368 167.172 310.582 168.008 310.582C168.822 310.582 169.562 310.368 170.226 309.939C170.89 309.489 171.415 308.889 171.801 308.139C172.208 307.368 172.412 306.489 172.412 305.503C172.412 304.539 172.208 303.671 171.801 302.9C171.415 302.129 170.89 301.529 170.226 301.1C169.562 300.671 168.822 300.457 168.008 300.457C167.172 300.457 166.422 300.682 165.758 301.132C165.094 301.561 164.569 302.161 164.183 302.932C163.797 303.682 163.605 304.55 163.605 305.536ZM189.751 300.811C188.444 300.811 187.276 301.068 186.247 301.582C185.219 302.075 184.479 302.793 184.029 303.736V313.925H179.722V297.082H183.676V300.682C184.276 299.525 185.036 298.614 185.958 297.95C186.879 297.286 187.854 296.921 188.883 296.857C189.119 296.857 189.301 296.857 189.429 296.857C189.558 296.857 189.665 296.868 189.751 296.889V300.811ZM202.245 313.057C201.881 313.207 201.441 313.378 200.927 313.571C200.413 313.764 199.856 313.914 199.256 314.021C198.677 314.15 198.088 314.214 197.488 314.214C196.695 314.214 195.967 314.075 195.302 313.796C194.638 313.518 194.102 313.078 193.695 312.478C193.309 311.857 193.117 311.053 193.117 310.068V300.393H190.899V297.082H193.117V291.618H197.424V297.082H200.959V300.393H197.424V308.621C197.445 309.2 197.606 309.618 197.906 309.875C198.206 310.132 198.581 310.261 199.031 310.261C199.481 310.261 199.92 310.186 200.349 310.036C200.777 309.886 201.12 309.757 201.377 309.65L202.245 313.057ZM203.331 308.943C203.331 307.85 203.631 306.896 204.231 306.082C204.852 305.246 205.71 304.604 206.802 304.154C207.895 303.704 209.149 303.479 210.563 303.479C211.27 303.479 211.988 303.532 212.717 303.639C213.445 303.746 214.077 303.918 214.613 304.154V303.254C214.613 302.182 214.292 301.357 213.649 300.779C213.027 300.2 212.095 299.911 210.852 299.911C209.931 299.911 209.052 300.071 208.217 300.393C207.381 300.714 206.502 301.186 205.581 301.807L204.199 298.979C205.313 298.25 206.449 297.704 207.606 297.339C208.785 296.975 210.017 296.793 211.302 296.793C213.702 296.793 215.567 297.393 216.895 298.593C218.245 299.793 218.92 301.507 218.92 303.736V309.103C218.92 309.553 218.995 309.875 219.145 310.068C219.317 310.261 219.584 310.378 219.949 310.421V313.925C219.563 313.989 219.209 314.043 218.888 314.086C218.588 314.128 218.331 314.15 218.117 314.15C217.259 314.15 216.606 313.957 216.156 313.571C215.727 313.186 215.459 312.714 215.352 312.157L215.256 311.289C214.527 312.232 213.617 312.961 212.524 313.475C211.431 313.989 210.317 314.246 209.181 314.246C208.067 314.246 207.06 314.021 206.16 313.571C205.281 313.1 204.585 312.468 204.07 311.675C203.577 310.861 203.331 309.95 203.331 308.943ZM213.809 309.811C214.045 309.553 214.238 309.296 214.388 309.039C214.538 308.782 214.613 308.546 214.613 308.332V306.628C214.099 306.414 213.542 306.253 212.942 306.146C212.342 306.018 211.774 305.953 211.238 305.953C210.124 305.953 209.202 306.2 208.474 306.693C207.767 307.164 207.413 307.796 207.413 308.589C207.413 309.018 207.531 309.425 207.767 309.811C208.002 310.196 208.345 310.507 208.795 310.743C209.245 310.978 209.781 311.096 210.402 311.096C211.045 311.096 211.677 310.978 212.299 310.743C212.92 310.486 213.424 310.175 213.809 309.811ZM223.911 313.925V301.261H221.693V297.982H223.911V296.954C223.911 295.561 224.136 294.361 224.586 293.354C225.057 292.325 225.711 291.532 226.546 290.975C227.404 290.418 228.4 290.139 229.536 290.139C230.221 290.139 230.907 290.225 231.593 290.397C232.3 290.568 232.996 290.814 233.682 291.136L232.814 294.382C232.493 294.211 232.118 294.072 231.689 293.964C231.261 293.836 230.854 293.772 230.468 293.772C229.739 293.772 229.182 294.029 228.796 294.543C228.411 295.057 228.218 295.807 228.218 296.793V297.982H232.332V301.261H228.218V313.925H223.911ZM242.337 314.246C240.966 314.246 239.734 314.021 238.641 313.571C237.548 313.1 236.616 312.457 235.845 311.643C235.095 310.828 234.516 309.896 234.109 308.846C233.702 307.796 233.498 306.693 233.498 305.536C233.498 304.357 233.702 303.243 234.109 302.193C234.516 301.143 235.095 300.211 235.845 299.396C236.616 298.582 237.548 297.95 238.641 297.5C239.734 297.029 240.966 296.793 242.337 296.793C243.709 296.793 244.93 297.029 246.002 297.5C247.094 297.95 248.027 298.582 248.798 299.396C249.569 300.211 250.148 301.143 250.534 302.193C250.941 303.243 251.144 304.357 251.144 305.536C251.144 306.693 250.941 307.796 250.534 308.846C250.148 309.896 249.569 310.828 248.798 311.643C248.048 312.457 247.127 313.1 246.034 313.571C244.941 314.021 243.709 314.246 242.337 314.246ZM237.934 305.536C237.934 306.521 238.127 307.4 238.512 308.171C238.898 308.921 239.423 309.511 240.087 309.939C240.752 310.368 241.502 310.582 242.337 310.582C243.152 310.582 243.891 310.368 244.555 309.939C245.219 309.489 245.744 308.889 246.13 308.139C246.537 307.368 246.741 306.489 246.741 305.503C246.741 304.539 246.537 303.671 246.13 302.9C245.744 302.129 245.219 301.529 244.555 301.1C243.891 300.671 243.152 300.457 242.337 300.457C241.502 300.457 240.752 300.682 240.087 301.132C239.423 301.561 238.898 302.161 238.512 302.932C238.127 303.682 237.934 304.55 237.934 305.536ZM254.019 290.461H258.326V308.525C258.326 309.296 258.455 309.821 258.712 310.1C258.969 310.357 259.323 310.486 259.773 310.486C260.116 310.486 260.469 310.443 260.834 310.357C261.198 310.271 261.519 310.164 261.798 310.036L262.376 313.314C261.798 313.593 261.123 313.807 260.351 313.957C259.58 314.107 258.884 314.182 258.262 314.182C256.912 314.182 255.862 313.828 255.112 313.121C254.384 312.393 254.019 311.364 254.019 310.036V290.461ZM264.253 313.925V297.082H268.56V313.925H264.253ZM264.253 294.736V290.461H268.56V294.736H264.253ZM280.224 314.246C278.853 314.246 277.62 314.021 276.528 313.571C275.435 313.1 274.503 312.457 273.731 311.643C272.981 310.828 272.403 309.896 271.996 308.846C271.588 307.796 271.385 306.693 271.385 305.536C271.385 304.357 271.588 303.243 271.996 302.193C272.403 301.143 272.981 300.211 273.731 299.396C274.503 298.582 275.435 297.95 276.528 297.5C277.62 297.029 278.853 296.793 280.224 296.793C281.595 296.793 282.817 297.029 283.888 297.5C284.981 297.95 285.913 298.582 286.685 299.396C287.456 300.211 288.035 301.143 288.42 302.193C288.827 303.243 289.031 304.357 289.031 305.536C289.031 306.693 288.827 307.796 288.42 308.846C288.035 309.896 287.456 310.828 286.685 311.643C285.935 312.457 285.013 313.1 283.92 313.571C282.828 314.021 281.595 314.246 280.224 314.246ZM275.82 305.536C275.82 306.521 276.013 307.4 276.399 308.171C276.785 308.921 277.31 309.511 277.974 309.939C278.638 310.368 279.388 310.582 280.224 310.582C281.038 310.582 281.778 310.368 282.442 309.939C283.106 309.489 283.631 308.889 284.017 308.139C284.424 307.368 284.627 306.489 284.627 305.503C284.627 304.539 284.424 303.671 284.017 302.9C283.631 302.129 283.106 301.529 282.442 301.1C281.778 300.671 281.038 300.457 280.224 300.457C279.388 300.457 278.638 300.682 277.974 301.132C277.31 301.561 276.785 302.161 276.399 302.932C276.013 303.682 275.82 304.55 275.82 305.536Z" fill="white"/>
<path d="M141.398 375.849H134.102V394.781H129.698V375.849H122.402V371.96H141.398V375.849ZM148.453 395.103C147.103 395.103 145.882 394.878 144.789 394.428C143.696 393.956 142.764 393.324 141.993 392.531C141.221 391.717 140.621 390.796 140.193 389.767C139.786 388.717 139.582 387.613 139.582 386.456C139.582 384.849 139.936 383.381 140.643 382.053C141.371 380.724 142.4 379.664 143.729 378.871C145.079 378.056 146.664 377.649 148.486 377.649C150.328 377.649 151.903 378.056 153.211 378.871C154.518 379.664 155.514 380.724 156.2 382.053C156.907 383.36 157.26 384.774 157.26 386.296C157.26 386.553 157.25 386.821 157.228 387.099C157.207 387.356 157.185 387.571 157.164 387.742H144.146C144.232 388.599 144.479 389.349 144.886 389.992C145.314 390.635 145.85 391.128 146.493 391.471C147.157 391.792 147.864 391.953 148.614 391.953C149.471 391.953 150.275 391.749 151.025 391.342C151.796 390.913 152.321 390.356 152.6 389.671L156.296 390.699C155.889 391.556 155.3 392.317 154.528 392.981C153.778 393.646 152.889 394.171 151.861 394.556C150.832 394.921 149.696 395.103 148.453 395.103ZM144.05 385.01H152.857C152.771 384.153 152.525 383.414 152.118 382.792C151.732 382.149 151.218 381.656 150.575 381.314C149.932 380.949 149.214 380.767 148.421 380.767C147.65 380.767 146.943 380.949 146.3 381.314C145.678 381.656 145.164 382.149 144.757 382.792C144.371 383.414 144.136 384.153 144.05 385.01ZM166.088 395.103C164.652 395.103 163.281 394.867 161.974 394.396C160.666 393.924 159.541 393.228 158.599 392.306L160.141 389.51C161.149 390.324 162.134 390.924 163.099 391.31C164.084 391.696 165.027 391.888 165.927 391.888C166.763 391.888 167.427 391.738 167.92 391.438C168.434 391.138 168.691 390.688 168.691 390.088C168.691 389.681 168.552 389.371 168.274 389.156C167.995 388.921 167.588 388.717 167.052 388.546C166.538 388.374 165.906 388.181 165.156 387.967C163.913 387.56 162.874 387.164 162.038 386.778C161.202 386.392 160.57 385.91 160.141 385.331C159.734 384.731 159.531 383.971 159.531 383.049C159.531 381.935 159.809 380.981 160.366 380.189C160.945 379.374 161.738 378.742 162.745 378.292C163.774 377.842 164.974 377.617 166.345 377.617C167.545 377.617 168.681 377.81 169.752 378.196C170.823 378.56 171.798 379.16 172.677 379.996L170.941 382.728C170.084 382.064 169.27 381.581 168.499 381.281C167.727 380.96 166.945 380.799 166.152 380.799C165.702 380.799 165.274 380.853 164.866 380.96C164.481 381.067 164.159 381.249 163.902 381.506C163.666 381.742 163.549 382.085 163.549 382.535C163.549 382.942 163.656 383.264 163.87 383.499C164.106 383.714 164.449 383.906 164.899 384.078C165.37 384.249 165.938 384.442 166.602 384.656C167.952 385.042 169.088 385.439 170.009 385.846C170.952 386.253 171.659 386.756 172.131 387.356C172.602 387.935 172.838 388.738 172.838 389.767C172.838 391.438 172.227 392.746 171.006 393.688C169.784 394.631 168.145 395.103 166.088 395.103ZM185.766 393.913C185.401 394.063 184.962 394.235 184.448 394.428C183.934 394.621 183.377 394.771 182.777 394.878C182.198 395.006 181.609 395.071 181.009 395.071C180.216 395.071 179.487 394.931 178.823 394.653C178.159 394.374 177.623 393.935 177.216 393.335C176.83 392.713 176.637 391.91 176.637 390.924V381.249H174.419V377.939H176.637V372.474H180.944V377.939H184.48V381.249H180.944V389.478C180.966 390.056 181.127 390.474 181.427 390.731C181.727 390.988 182.102 391.117 182.552 391.117C183.002 391.117 183.441 391.042 183.869 390.892C184.298 390.742 184.641 390.613 184.898 390.506L185.766 393.913ZM188.009 394.781V377.939H192.316V394.781H188.009ZM188.009 375.592V371.317H192.316V375.592H188.009ZM222.365 394.781H218.058V385.331C218.058 384.003 217.823 383.028 217.351 382.406C216.901 381.764 216.269 381.442 215.455 381.442C214.619 381.442 213.816 381.774 213.044 382.439C212.294 383.081 211.758 383.928 211.437 384.978V394.781H207.13V385.331C207.13 383.981 206.894 382.996 206.423 382.374C205.973 381.753 205.341 381.442 204.526 381.442C203.691 381.442 202.887 381.764 202.116 382.406C201.366 383.049 200.83 383.896 200.509 384.946V394.781H196.201V377.939H200.091V381.056C200.734 379.964 201.591 379.128 202.662 378.549C203.734 377.949 204.966 377.649 206.358 377.649C207.751 377.649 208.833 377.992 209.605 378.678C210.398 379.364 210.901 380.21 211.116 381.217C211.801 380.06 212.669 379.181 213.719 378.581C214.791 377.96 215.99 377.649 217.319 377.649C218.369 377.649 219.215 377.842 219.858 378.228C220.523 378.592 221.037 379.096 221.401 379.739C221.765 380.36 222.012 381.067 222.14 381.86C222.29 382.653 222.365 383.456 222.365 384.271V394.781ZM233.894 395.103C232.522 395.103 231.29 394.878 230.197 394.428C229.105 393.956 228.172 393.313 227.401 392.499C226.651 391.685 226.072 390.753 225.665 389.703C225.258 388.653 225.055 387.549 225.055 386.392C225.055 385.214 225.258 384.099 225.665 383.049C226.072 381.999 226.651 381.067 227.401 380.253C228.172 379.439 229.105 378.806 230.197 378.356C231.29 377.885 232.522 377.649 233.894 377.649C235.265 377.649 236.487 377.885 237.558 378.356C238.651 378.806 239.583 379.439 240.354 380.253C241.126 381.067 241.704 381.999 242.09 383.049C242.497 384.099 242.701 385.214 242.701 386.392C242.701 387.549 242.497 388.653 242.09 389.703C241.704 390.753 241.126 391.685 240.354 392.499C239.604 393.313 238.683 393.956 237.59 394.428C236.497 394.878 235.265 395.103 233.894 395.103ZM229.49 386.392C229.49 387.378 229.683 388.256 230.069 389.028C230.454 389.778 230.979 390.367 231.644 390.796C232.308 391.224 233.058 391.438 233.894 391.438C234.708 391.438 235.447 391.224 236.112 390.796C236.776 390.346 237.301 389.746 237.687 388.996C238.094 388.224 238.297 387.346 238.297 386.36C238.297 385.396 238.094 384.528 237.687 383.756C237.301 382.985 236.776 382.385 236.112 381.956C235.447 381.528 234.708 381.314 233.894 381.314C233.058 381.314 232.308 381.539 231.644 381.989C230.979 382.417 230.454 383.017 230.069 383.789C229.683 384.539 229.49 385.406 229.49 386.392ZM261.261 394.781H256.954V385.331C256.954 383.981 256.718 382.996 256.247 382.374C255.776 381.753 255.122 381.442 254.286 381.442C253.708 381.442 253.118 381.592 252.518 381.892C251.94 382.192 251.415 382.61 250.944 383.146C250.472 383.66 250.129 384.26 249.915 384.946V394.781H245.608V377.939H249.497V381.056C249.926 380.328 250.472 379.717 251.136 379.224C251.801 378.71 252.561 378.324 253.418 378.067C254.297 377.789 255.218 377.649 256.183 377.649C257.233 377.649 258.09 377.842 258.754 378.228C259.44 378.592 259.954 379.096 260.297 379.739C260.661 380.36 260.908 381.067 261.036 381.86C261.186 382.653 261.261 383.456 261.261 384.271V394.781ZM265.006 394.781V377.939H269.313V394.781H265.006ZM265.006 375.592V371.317H269.313V375.592H265.006ZM280.977 395.103C279.606 395.103 278.374 394.878 277.281 394.428C276.188 393.956 275.256 393.313 274.485 392.499C273.735 391.685 273.156 390.753 272.749 389.703C272.342 388.653 272.138 387.549 272.138 386.392C272.138 385.214 272.342 384.099 272.749 383.049C273.156 381.999 273.735 381.067 274.485 380.253C275.256 379.439 276.188 378.806 277.281 378.356C278.374 377.885 279.606 377.649 280.977 377.649C282.349 377.649 283.57 377.885 284.642 378.356C285.734 378.806 286.667 379.439 287.438 380.253C288.209 381.067 288.788 381.999 289.174 383.049C289.581 384.099 289.784 385.214 289.784 386.392C289.784 387.549 289.581 388.653 289.174 389.703C288.788 390.753 288.209 391.685 287.438 392.499C286.688 393.313 285.767 393.956 284.674 394.428C283.581 394.878 282.349 395.103 280.977 395.103ZM276.574 386.392C276.574 387.378 276.767 388.256 277.152 389.028C277.538 389.778 278.063 390.367 278.727 390.796C279.392 391.224 280.142 391.438 280.977 391.438C281.792 391.438 282.531 391.224 283.195 390.796C283.859 390.346 284.384 389.746 284.77 388.996C285.177 388.224 285.381 387.346 285.381 386.36C285.381 385.396 285.177 384.528 284.77 383.756C284.384 382.985 283.859 382.385 283.195 381.956C282.531 381.528 281.792 381.314 280.977 381.314C280.142 381.314 279.392 381.539 278.727 381.989C278.063 382.417 277.538 383.017 277.152 383.789C276.767 384.539 276.574 385.406 276.574 386.392ZM298.895 395.103C297.459 395.103 296.088 394.867 294.781 394.396C293.474 393.924 292.349 393.228 291.406 392.306L292.949 389.51C293.956 390.324 294.941 390.924 295.906 391.31C296.891 391.696 297.834 391.888 298.734 391.888C299.57 391.888 300.234 391.738 300.727 391.438C301.241 391.138 301.498 390.688 301.498 390.088C301.498 389.681 301.359 389.371 301.081 389.156C300.802 388.921 300.395 388.717 299.859 388.546C299.345 388.374 298.713 388.181 297.963 387.967C296.72 387.56 295.681 387.164 294.845 386.778C294.009 386.392 293.377 385.91 292.949 385.331C292.541 384.731 292.338 383.971 292.338 383.049C292.338 381.935 292.616 380.981 293.174 380.189C293.752 379.374 294.545 378.742 295.552 378.292C296.581 377.842 297.781 377.617 299.152 377.617C300.352 377.617 301.488 377.81 302.559 378.196C303.631 378.56 304.606 379.16 305.484 379.996L303.748 382.728C302.891 382.064 302.077 381.581 301.306 381.281C300.534 380.96 299.752 380.799 298.959 380.799C298.509 380.799 298.081 380.853 297.674 380.96C297.288 381.067 296.966 381.249 296.709 381.506C296.474 381.742 296.356 382.085 296.356 382.535C296.356 382.942 296.463 383.264 296.677 383.499C296.913 383.714 297.256 383.906 297.706 384.078C298.177 384.249 298.745 384.442 299.409 384.656C300.759 385.042 301.895 385.439 302.816 385.846C303.759 386.253 304.466 386.756 304.938 387.356C305.409 387.935 305.645 388.738 305.645 389.767C305.645 391.438 305.034 392.746 303.813 393.688C302.591 394.631 300.952 395.103 298.895 395.103Z" fill="#D90062"/>
<path d="M144.607 464.066C144.607 462.674 144.853 461.313 145.346 459.984C145.86 458.634 146.599 457.413 147.564 456.32C148.528 455.206 149.707 454.327 151.099 453.684C152.492 453.02 154.078 452.688 155.857 452.688C157.956 452.688 159.767 453.149 161.289 454.07C162.831 454.992 163.978 456.192 164.728 457.67L161.321 460.016C160.935 459.159 160.431 458.484 159.81 457.992C159.189 457.477 158.524 457.124 157.817 456.931C157.11 456.717 156.414 456.609 155.728 456.609C154.614 456.609 153.639 456.834 152.803 457.284C151.989 457.734 151.303 458.324 150.746 459.052C150.189 459.781 149.771 460.595 149.492 461.495C149.235 462.395 149.107 463.295 149.107 464.195C149.107 465.202 149.267 466.177 149.589 467.12C149.91 468.041 150.36 468.866 150.939 469.595C151.539 470.302 152.246 470.87 153.06 471.298C153.896 471.706 154.807 471.909 155.792 471.909C156.499 471.909 157.217 471.791 157.946 471.556C158.674 471.32 159.349 470.945 159.971 470.431C160.592 469.916 161.074 469.252 161.417 468.438L165.049 470.527C164.599 471.663 163.86 472.627 162.831 473.42C161.824 474.213 160.689 474.813 159.424 475.22C158.16 475.627 156.906 475.831 155.664 475.831C154.035 475.831 152.546 475.498 151.196 474.834C149.846 474.148 148.678 473.248 147.692 472.134C146.728 470.998 145.967 469.734 145.41 468.341C144.875 466.927 144.607 465.502 144.607 464.066ZM175.322 475.959C173.95 475.959 172.718 475.734 171.625 475.284C170.533 474.813 169.6 474.17 168.829 473.356C168.079 472.541 167.5 471.609 167.093 470.559C166.686 469.509 166.483 468.406 166.483 467.249C166.483 466.07 166.686 464.956 167.093 463.906C167.5 462.856 168.079 461.924 168.829 461.109C169.6 460.295 170.533 459.663 171.625 459.213C172.718 458.742 173.95 458.506 175.322 458.506C176.693 458.506 177.915 458.742 178.986 459.213C180.079 459.663 181.011 460.295 181.782 461.109C182.554 461.924 183.132 462.856 183.518 463.906C183.925 464.956 184.129 466.07 184.129 467.249C184.129 468.406 183.925 469.509 183.518 470.559C183.132 471.609 182.554 472.541 181.782 473.356C181.032 474.17 180.111 474.813 179.018 475.284C177.925 475.734 176.693 475.959 175.322 475.959ZM170.918 467.249C170.918 468.234 171.111 469.113 171.497 469.884C171.883 470.634 172.407 471.223 173.072 471.652C173.736 472.081 174.486 472.295 175.322 472.295C176.136 472.295 176.875 472.081 177.54 471.652C178.204 471.202 178.729 470.602 179.115 469.852C179.522 469.081 179.725 468.202 179.725 467.216C179.725 466.252 179.522 465.384 179.115 464.613C178.729 463.841 178.204 463.241 177.54 462.813C176.875 462.384 176.136 462.17 175.322 462.17C174.486 462.17 173.736 462.395 173.072 462.845C172.407 463.274 171.883 463.874 171.497 464.645C171.111 465.395 170.918 466.263 170.918 467.249ZM202.689 475.638H198.382V466.188C198.382 464.838 198.146 463.852 197.675 463.231C197.204 462.609 196.55 462.299 195.714 462.299C195.136 462.299 194.546 462.449 193.946 462.749C193.368 463.049 192.843 463.466 192.372 464.002C191.9 464.516 191.557 465.116 191.343 465.802V475.638H187.036V458.795H190.925V461.913C191.354 461.184 191.9 460.574 192.564 460.081C193.229 459.566 193.989 459.181 194.846 458.924C195.725 458.645 196.646 458.506 197.611 458.506C198.661 458.506 199.518 458.699 200.182 459.084C200.868 459.449 201.382 459.952 201.725 460.595C202.089 461.216 202.336 461.924 202.464 462.716C202.614 463.509 202.689 464.313 202.689 465.127V475.638ZM216.433 474.77C216.069 474.92 215.629 475.091 215.115 475.284C214.601 475.477 214.044 475.627 213.444 475.734C212.865 475.863 212.276 475.927 211.676 475.927C210.883 475.927 210.154 475.788 209.49 475.509C208.826 475.231 208.29 474.791 207.883 474.191C207.497 473.57 207.304 472.766 207.304 471.781V462.106H205.087V458.795H207.304V453.331H211.612V458.795H215.147V462.106H211.612V470.334C211.633 470.913 211.794 471.331 212.094 471.588C212.394 471.845 212.769 471.973 213.219 471.973C213.669 471.973 214.108 471.898 214.536 471.748C214.965 471.598 215.308 471.47 215.565 471.363L216.433 474.77ZM217.519 470.656C217.519 469.563 217.819 468.609 218.419 467.795C219.04 466.959 219.897 466.316 220.99 465.866C222.083 465.416 223.337 465.191 224.751 465.191C225.458 465.191 226.176 465.245 226.905 465.352C227.633 465.459 228.265 465.631 228.801 465.866V464.966C228.801 463.895 228.479 463.07 227.837 462.491C227.215 461.913 226.283 461.624 225.04 461.624C224.119 461.624 223.24 461.784 222.405 462.106C221.569 462.427 220.69 462.899 219.769 463.52L218.387 460.691C219.501 459.963 220.637 459.416 221.794 459.052C222.972 458.688 224.205 458.506 225.49 458.506C227.89 458.506 229.754 459.106 231.083 460.306C232.433 461.506 233.108 463.22 233.108 465.449V470.816C233.108 471.266 233.183 471.588 233.333 471.781C233.504 471.973 233.772 472.091 234.137 472.134V475.638C233.751 475.702 233.397 475.756 233.076 475.798C232.776 475.841 232.519 475.863 232.304 475.863C231.447 475.863 230.794 475.67 230.344 475.284C229.915 474.898 229.647 474.427 229.54 473.87L229.444 473.002C228.715 473.945 227.804 474.673 226.712 475.188C225.619 475.702 224.505 475.959 223.369 475.959C222.255 475.959 221.247 475.734 220.347 475.284C219.469 474.813 218.772 474.181 218.258 473.388C217.765 472.573 217.519 471.663 217.519 470.656ZM227.997 471.523C228.233 471.266 228.426 471.009 228.576 470.752C228.726 470.495 228.801 470.259 228.801 470.045V468.341C228.287 468.127 227.729 467.966 227.13 467.859C226.53 467.731 225.962 467.666 225.426 467.666C224.312 467.666 223.39 467.913 222.662 468.406C221.955 468.877 221.601 469.509 221.601 470.302C221.601 470.731 221.719 471.138 221.955 471.523C222.19 471.909 222.533 472.22 222.983 472.456C223.433 472.691 223.969 472.809 224.59 472.809C225.233 472.809 225.865 472.691 226.487 472.456C227.108 472.198 227.612 471.888 227.997 471.523ZM244.976 475.959C243.604 475.959 242.372 475.734 241.279 475.284C240.186 474.813 239.254 474.17 238.483 473.356C237.711 472.52 237.111 471.577 236.683 470.527C236.276 469.477 236.072 468.374 236.072 467.216C236.072 465.631 236.426 464.184 237.133 462.877C237.861 461.549 238.89 460.488 240.218 459.695C241.547 458.902 243.122 458.506 244.943 458.506C246.765 458.506 248.329 458.902 249.636 459.695C250.943 460.488 251.918 461.527 252.561 462.813L248.351 464.099C247.986 463.477 247.504 463.006 246.904 462.684C246.304 462.341 245.64 462.17 244.911 462.17C244.097 462.17 243.347 462.384 242.661 462.813C241.997 463.22 241.472 463.809 241.086 464.581C240.701 465.331 240.508 466.209 240.508 467.216C240.508 468.202 240.701 469.081 241.086 469.852C241.493 470.602 242.029 471.202 242.693 471.652C243.358 472.081 244.097 472.295 244.911 472.295C245.426 472.295 245.908 472.209 246.358 472.038C246.829 471.866 247.247 471.631 247.611 471.331C247.976 471.031 248.243 470.688 248.415 470.302L252.625 471.588C252.24 472.423 251.672 473.173 250.922 473.838C250.193 474.502 249.326 475.027 248.318 475.413C247.333 475.777 246.218 475.959 244.976 475.959ZM265.368 474.77C265.004 474.92 264.565 475.091 264.051 475.284C263.536 475.477 262.979 475.627 262.379 475.734C261.801 475.863 261.211 475.927 260.611 475.927C259.818 475.927 259.09 475.788 258.426 475.509C257.761 475.231 257.226 474.791 256.819 474.191C256.433 473.57 256.24 472.766 256.24 471.781V462.106H254.022V458.795H256.24V453.331H260.547V458.795H264.083V462.106H260.547V470.334C260.568 470.913 260.729 471.331 261.029 471.588C261.329 471.845 261.704 471.973 262.154 471.973C262.604 471.973 263.043 471.898 263.472 471.748C263.901 471.598 264.243 471.47 264.501 471.363L265.368 474.77ZM275.202 475.959C273.83 475.959 272.598 475.734 271.505 475.284C270.412 474.813 269.48 474.17 268.709 473.356C267.959 472.541 267.38 471.609 266.973 470.559C266.566 469.509 266.363 468.406 266.363 467.249C266.363 466.07 266.566 464.956 266.973 463.906C267.38 462.856 267.959 461.924 268.709 461.109C269.48 460.295 270.412 459.663 271.505 459.213C272.598 458.742 273.83 458.506 275.202 458.506C276.573 458.506 277.795 458.742 278.866 459.213C279.959 459.663 280.891 460.295 281.662 461.109C282.434 461.924 283.012 462.856 283.398 463.906C283.805 464.956 284.009 466.07 284.009 467.249C284.009 468.406 283.805 469.509 283.398 470.559C283.012 471.609 282.434 472.541 281.662 473.356C280.912 474.17 279.991 474.813 278.898 475.284C277.805 475.734 276.573 475.959 275.202 475.959ZM270.798 467.249C270.798 468.234 270.991 469.113 271.377 469.884C271.762 470.634 272.287 471.223 272.952 471.652C273.616 472.081 274.366 472.295 275.202 472.295C276.016 472.295 276.755 472.081 277.42 471.652C278.084 471.202 278.609 470.602 278.995 469.852C279.402 469.081 279.605 468.202 279.605 467.216C279.605 466.252 279.402 465.384 278.995 464.613C278.609 463.841 278.084 463.241 277.42 462.813C276.755 462.384 276.016 462.17 275.202 462.17C274.366 462.17 273.616 462.395 272.952 462.845C272.287 463.274 271.762 463.874 271.377 464.645C270.991 465.395 270.798 466.263 270.798 467.249Z" fill="#D90062"/>
</g>
<defs>
<clipPath id="clip0_66_369">
<rect width="428.565" height="524.992" fill="white"/>
</clipPath>
</defs>
</svg>
