<svg width="430" height="237" viewBox="0 0 430 237" fill="none" xmlns="http://www.w3.org/2000/svg">
<g filter="url(#filter0_d_66_348)">
<rect x="17" y="17" width="385.709" height="192.854" fill="white"/>
</g>
<path d="M117.347 72.1289V82.977H114.117V72.1289H117.347ZM117.347 65.6924V69.3325H114.117V65.6924H117.347ZM135.13 82.8564V71.6227L130.743 79.9877H128.887L124.499 71.6227V82.8564H121.172V65.7406H124.74L129.803 75.4798L134.913 65.7406H138.457V82.8564H135.13ZM141.597 78.1315V70.2245H144.827V77.4324C144.827 78.3967 145.004 79.1279 145.357 79.6261C145.711 80.1083 146.233 80.3493 146.924 80.3493C147.342 80.3493 147.752 80.269 148.154 80.1083C148.571 79.9315 148.949 79.6743 149.287 79.3369C149.64 78.9994 149.937 78.5735 150.179 78.0592V70.2245H153.409V79.2404C153.409 79.5779 153.465 79.819 153.578 79.9636C153.706 80.1083 153.907 80.1967 154.18 80.2288V82.8564C153.859 82.9047 153.586 82.9368 153.361 82.9529C153.152 82.985 152.959 83.0011 152.782 83.0011C152.204 83.0011 151.729 82.8725 151.36 82.6154C151.006 82.3422 150.797 81.9725 150.733 81.5065L150.661 80.494C150.098 81.3458 149.375 81.9966 148.491 82.4466C147.607 82.8806 146.635 83.0975 145.574 83.0975C144.272 83.0975 143.284 82.6797 142.609 81.844C141.934 80.9922 141.597 79.7547 141.597 78.1315ZM162.501 83.0975C161.473 83.0975 160.548 82.9288 159.729 82.5913C158.909 82.2377 158.21 81.7556 157.631 81.1449C157.053 80.5181 156.603 79.811 156.282 79.0235C155.976 78.236 155.823 77.4083 155.823 76.5405C155.823 75.3512 156.089 74.2664 156.619 73.286C157.165 72.2896 157.937 71.4941 158.933 70.8995C159.93 70.3048 161.111 70.0075 162.477 70.0075C163.843 70.0075 165.016 70.3048 165.997 70.8995C166.977 71.4941 167.708 72.2736 168.19 73.2378L165.032 74.2021C164.759 73.736 164.397 73.3825 163.947 73.1414C163.497 72.8843 162.999 72.7557 162.453 72.7557C161.842 72.7557 161.28 72.9164 160.765 73.2378C160.267 73.5432 159.873 73.9851 159.584 74.5637C159.295 75.1262 159.15 75.7851 159.15 76.5405C159.15 77.2797 159.295 77.9387 159.584 78.5172C159.889 79.0797 160.291 79.5297 160.789 79.8672C161.288 80.1886 161.842 80.3493 162.453 80.3493C162.839 80.3493 163.2 80.2851 163.538 80.1565C163.891 80.0279 164.205 79.8511 164.478 79.6261C164.751 79.4011 164.952 79.144 165.08 78.8547L168.238 79.819C167.949 80.4458 167.523 81.0083 166.961 81.5065C166.414 82.0047 165.764 82.3984 165.008 82.6877C164.269 82.9609 163.433 83.0975 162.501 83.0975ZM181.966 82.8564H178.736V75.769C178.736 74.7887 178.543 74.0575 178.157 73.5753C177.788 73.0932 177.273 72.8521 176.614 72.8521C176.229 72.8521 175.819 72.9646 175.385 73.1896C174.951 73.4146 174.557 73.728 174.204 74.1298C173.866 74.5155 173.617 74.9655 173.456 75.4798V82.8564H170.226V65.2585H173.456V72.5628C173.923 71.7593 174.557 71.1325 175.361 70.6825C176.164 70.2325 177.04 70.0075 177.989 70.0075C178.808 70.0075 179.475 70.1522 179.989 70.4414C180.504 70.7147 180.905 71.0923 181.195 71.5745C181.484 72.0405 181.685 72.5709 181.797 73.1655C181.91 73.7441 181.966 74.3467 181.966 74.9735V82.8564ZM183.907 79.1199C183.907 78.3003 184.132 77.5851 184.582 76.9744C185.048 76.3476 185.691 75.8655 186.511 75.528C187.33 75.1905 188.27 75.0217 189.331 75.0217C189.862 75.0217 190.4 75.0619 190.946 75.1423C191.493 75.2226 191.967 75.3512 192.369 75.528V74.853C192.369 74.0494 192.128 73.4307 191.645 72.9968C191.179 72.5628 190.48 72.3459 189.548 72.3459C188.857 72.3459 188.198 72.4664 187.571 72.7075C186.945 72.9486 186.286 73.3021 185.595 73.7682L184.558 71.6468C185.394 71.1004 186.246 70.6905 187.113 70.4173C187.997 70.1441 188.921 70.0075 189.886 70.0075C191.686 70.0075 193.084 70.4575 194.08 71.3575C195.093 72.2575 195.599 73.5432 195.599 75.2146V79.2404C195.599 79.5779 195.655 79.819 195.768 79.9636C195.896 80.1083 196.097 80.1967 196.37 80.2288V82.8564C196.081 82.9047 195.816 82.9448 195.575 82.977C195.35 83.0091 195.157 83.0252 194.996 83.0252C194.353 83.0252 193.863 82.8806 193.526 82.5913C193.204 82.302 193.003 81.9484 192.923 81.5306L192.851 80.8797C192.304 81.5868 191.621 82.1332 190.802 82.519C189.982 82.9047 189.146 83.0975 188.295 83.0975C187.459 83.0975 186.704 82.9288 186.029 82.5913C185.37 82.2377 184.847 81.7636 184.462 81.169C184.092 80.5583 183.907 79.8752 183.907 79.1199ZM191.766 79.7708C191.943 79.5779 192.087 79.3851 192.2 79.1922C192.312 78.9994 192.369 78.8226 192.369 78.6619V77.3842C191.983 77.2235 191.565 77.103 191.115 77.0226C190.665 76.9262 190.239 76.878 189.837 76.878C189.002 76.878 188.311 77.0628 187.764 77.4324C187.234 77.786 186.969 78.2601 186.969 78.8547C186.969 79.1761 187.057 79.4815 187.234 79.7708C187.411 80.0601 187.668 80.2931 188.005 80.4699C188.343 80.6467 188.745 80.735 189.211 80.735C189.693 80.735 190.167 80.6467 190.633 80.4699C191.099 80.277 191.477 80.044 191.766 79.7708ZM203.27 83.0975C202.193 83.0975 201.165 82.9207 200.185 82.5672C199.204 82.2136 198.36 81.6913 197.653 81.0002L198.81 78.9029C199.566 79.5136 200.305 79.9636 201.028 80.2529C201.768 80.5422 202.475 80.6868 203.15 80.6868C203.776 80.6868 204.275 80.5743 204.644 80.3493C205.03 80.1243 205.223 79.7868 205.223 79.3369C205.223 79.0315 205.118 78.7985 204.909 78.6378C204.701 78.461 204.395 78.3083 203.993 78.1797C203.608 78.0512 203.134 77.9065 202.571 77.7458C201.639 77.4405 200.859 77.1431 200.233 76.8539C199.606 76.5646 199.132 76.203 198.81 75.769C198.505 75.3191 198.352 74.7485 198.352 74.0575C198.352 73.2218 198.561 72.5066 198.979 71.912C199.413 71.3013 200.008 70.8272 200.763 70.4897C201.534 70.1522 202.434 69.9834 203.463 69.9834C204.363 69.9834 205.215 70.1281 206.018 70.4173C206.822 70.6905 207.553 71.1405 208.212 71.7673L206.91 73.8164C206.267 73.3182 205.657 72.9566 205.078 72.7316C204.5 72.4905 203.913 72.37 203.318 72.37C202.981 72.37 202.659 72.4102 202.354 72.4905C202.065 72.5709 201.824 72.7075 201.631 72.9003C201.454 73.0771 201.366 73.3343 201.366 73.6718C201.366 73.9771 201.446 74.2182 201.607 74.395C201.784 74.5557 202.041 74.7003 202.378 74.8289C202.732 74.9575 203.158 75.1021 203.656 75.2628C204.668 75.5521 205.52 75.8494 206.211 76.1548C206.918 76.4601 207.449 76.8378 207.802 77.2878C208.156 77.7217 208.333 78.3244 208.333 79.0958C208.333 80.3493 207.875 81.3297 206.959 82.0368C206.042 82.7439 204.813 83.0975 203.27 83.0975ZM223.746 82.977C222.637 82.977 221.584 82.752 220.588 82.302C219.608 81.852 218.74 81.2333 217.984 80.4458C217.245 79.6422 216.667 78.7101 216.249 77.6494C215.831 76.5887 215.622 75.4396 215.622 74.2021C215.622 73.0289 215.831 71.928 216.249 70.8995C216.667 69.8548 217.253 68.9388 218.008 68.1513C218.764 67.3638 219.648 66.7451 220.66 66.2951C221.673 65.8451 222.774 65.6201 223.963 65.6201C225.57 65.6201 226.944 65.9656 228.085 66.6567C229.242 67.3317 230.11 68.2317 230.689 69.3566L228.206 71.1888C227.772 70.337 227.161 69.6861 226.374 69.2361C225.602 68.7861 224.758 68.5611 223.842 68.5611C223.119 68.5611 222.46 68.7138 221.866 69.0191C221.271 69.3245 220.757 69.7423 220.323 70.2727C219.889 70.803 219.551 71.4138 219.31 72.1048C219.085 72.7959 218.973 73.5271 218.973 74.2985C218.973 75.1182 219.093 75.8735 219.334 76.5646C219.591 77.2556 219.945 77.8583 220.395 78.3726C220.861 78.8869 221.399 79.2967 222.01 79.602C222.621 79.8913 223.296 80.036 224.035 80.036C224.903 80.036 225.731 79.811 226.518 79.361C227.322 78.911 228.069 78.252 228.76 77.3842V80.6627C227.33 82.2056 225.658 82.977 223.746 82.977ZM228.519 76.4923H225.072V74.0575H231.267V82.8564H228.519V76.4923ZM241.31 73.0209C240.33 73.0209 239.454 73.2137 238.683 73.5994C237.911 73.9691 237.357 74.5075 237.019 75.2146V82.8564H233.789V70.2245H236.754V72.9244C237.204 72.0566 237.775 71.3736 238.466 70.8754C239.157 70.3772 239.888 70.1039 240.659 70.0557C240.836 70.0557 240.973 70.0557 241.069 70.0557C241.166 70.0557 241.246 70.0638 241.31 70.0798V73.0209ZM242.173 79.1199C242.173 78.3003 242.398 77.5851 242.848 76.9744C243.314 76.3476 243.957 75.8655 244.777 75.528C245.596 75.1905 246.536 75.0217 247.597 75.0217C248.127 75.0217 248.666 75.0619 249.212 75.1423C249.759 75.2226 250.233 75.3512 250.635 75.528V74.853C250.635 74.0494 250.393 73.4307 249.911 72.9968C249.445 72.5628 248.746 72.3459 247.814 72.3459C247.123 72.3459 246.464 72.4664 245.837 72.7075C245.211 72.9486 244.552 73.3021 243.861 73.7682L242.824 71.6468C243.66 71.1004 244.511 70.6905 245.379 70.4173C246.263 70.1441 247.187 70.0075 248.152 70.0075C249.952 70.0075 251.35 70.4575 252.346 71.3575C253.359 72.2575 253.865 73.5432 253.865 75.2146V79.2404C253.865 79.5779 253.921 79.819 254.034 79.9636C254.162 80.1083 254.363 80.1967 254.636 80.2288V82.8564C254.347 82.9047 254.082 82.9448 253.841 82.977C253.616 83.0091 253.423 83.0252 253.262 83.0252C252.619 83.0252 252.129 82.8806 251.792 82.5913C251.47 82.302 251.269 81.9484 251.189 81.5306L251.117 80.8797C250.57 81.5868 249.887 82.1332 249.068 82.519C248.248 82.9047 247.412 83.0975 246.561 83.0975C245.725 83.0975 244.969 82.9288 244.294 82.5913C243.636 82.2377 243.113 81.7636 242.728 81.169C242.358 80.5583 242.173 79.8752 242.173 79.1199ZM250.032 79.7708C250.209 79.5779 250.353 79.3851 250.466 79.1922C250.578 78.9994 250.635 78.8226 250.635 78.6619V77.3842C250.249 77.2235 249.831 77.103 249.381 77.0226C248.931 76.9262 248.505 76.878 248.103 76.878C247.268 76.878 246.577 77.0628 246.03 77.4324C245.5 77.786 245.235 78.2601 245.235 78.8547C245.235 79.1761 245.323 79.4815 245.5 79.7708C245.677 80.0601 245.934 80.2931 246.271 80.4699C246.609 80.6467 247.011 80.735 247.477 80.735C247.959 80.735 248.433 80.6467 248.899 80.4699C249.365 80.277 249.743 80.044 250.032 79.7708ZM262.766 83.0975C261.737 83.0975 260.813 82.9288 259.993 82.5913C259.174 82.2377 258.475 81.7556 257.896 81.1449C257.317 80.5181 256.867 79.811 256.546 79.0235C256.241 78.236 256.088 77.4083 256.088 76.5405C256.088 75.3512 256.353 74.2664 256.884 73.286C257.43 72.2896 258.201 71.4941 259.198 70.8995C260.194 70.3048 261.375 70.0075 262.741 70.0075C264.108 70.0075 265.281 70.3048 266.261 70.8995C267.241 71.4941 267.973 72.2736 268.455 73.2378L265.297 74.2021C265.024 73.736 264.662 73.3825 264.212 73.1414C263.762 72.8843 263.264 72.7557 262.717 72.7557C262.107 72.7557 261.544 72.9164 261.03 73.2378C260.532 73.5432 260.138 73.9851 259.849 74.5637C259.559 75.1262 259.415 75.7851 259.415 76.5405C259.415 77.2797 259.559 77.9387 259.849 78.5172C260.154 79.0797 260.556 79.5297 261.054 79.8672C261.552 80.1886 262.107 80.3493 262.717 80.3493C263.103 80.3493 263.465 80.2851 263.802 80.1565C264.156 80.0279 264.469 79.8511 264.742 79.6261C265.016 79.4011 265.216 79.144 265.345 78.8547L268.503 79.819C268.214 80.4458 267.788 81.0083 267.225 81.5065C266.679 82.0047 266.028 82.3984 265.273 82.6877C264.533 82.9609 263.698 83.0975 262.766 83.0975ZM270.491 82.8564V70.2245H273.721V82.8564H270.491ZM270.491 68.4647V65.2585H273.721V68.4647H270.491ZM275.767 79.1199C275.767 78.3003 275.992 77.5851 276.442 76.9744C276.908 76.3476 277.551 75.8655 278.371 75.528C279.19 75.1905 280.131 75.0217 281.191 75.0217C281.722 75.0217 282.26 75.0619 282.806 75.1423C283.353 75.2226 283.827 75.3512 284.229 75.528V74.853C284.229 74.0494 283.988 73.4307 283.506 72.9968C283.039 72.5628 282.34 72.3459 281.408 72.3459C280.717 72.3459 280.058 72.4664 279.431 72.7075C278.805 72.9486 278.146 73.3021 277.455 73.7682L276.418 71.6468C277.254 71.1004 278.106 70.6905 278.973 70.4173C279.857 70.1441 280.781 70.0075 281.746 70.0075C283.546 70.0075 284.944 70.4575 285.94 71.3575C286.953 72.2575 287.459 73.5432 287.459 75.2146V79.2404C287.459 79.5779 287.515 79.819 287.628 79.9636C287.756 80.1083 287.957 80.1967 288.23 80.2288V82.8564C287.941 82.9047 287.676 82.9448 287.435 82.977C287.21 83.0091 287.017 83.0252 286.856 83.0252C286.213 83.0252 285.723 82.8806 285.386 82.5913C285.064 82.302 284.864 81.9484 284.783 81.5306L284.711 80.8797C284.164 81.5868 283.481 82.1332 282.662 82.519C281.842 82.9047 281.006 83.0975 280.155 83.0975C279.319 83.0975 278.564 82.9288 277.889 82.5913C277.23 82.2377 276.707 81.7636 276.322 81.169C275.952 80.5583 275.767 79.8752 275.767 79.1199ZM283.626 79.7708C283.803 79.5779 283.947 79.3851 284.06 79.1922C284.172 78.9994 284.229 78.8226 284.229 78.6619V77.3842C283.843 77.2235 283.425 77.103 282.975 77.0226C282.525 76.9262 282.099 76.878 281.697 76.878C280.862 76.878 280.171 77.0628 279.624 77.4324C279.094 77.786 278.829 78.2601 278.829 78.8547C278.829 79.1761 278.917 79.4815 279.094 79.7708C279.271 80.0601 279.528 80.2931 279.865 80.4699C280.203 80.6467 280.605 80.735 281.071 80.735C281.553 80.735 282.027 80.6467 282.493 80.4699C282.959 80.277 283.337 80.044 283.626 79.7708ZM295.13 83.0975C294.053 83.0975 293.025 82.9207 292.045 82.5672C291.064 82.2136 290.22 81.6913 289.513 81.0002L290.67 78.9029C291.426 79.5136 292.165 79.9636 292.888 80.2529C293.628 80.5422 294.335 80.6868 295.01 80.6868C295.636 80.6868 296.135 80.5743 296.504 80.3493C296.89 80.1243 297.083 79.7868 297.083 79.3369C297.083 79.0315 296.978 78.7985 296.769 78.6378C296.561 78.461 296.255 78.3083 295.853 78.1797C295.468 78.0512 294.994 77.9065 294.431 77.7458C293.499 77.4405 292.72 77.1431 292.093 76.8539C291.466 76.5646 290.992 76.203 290.67 75.769C290.365 75.3191 290.212 74.7485 290.212 74.0575C290.212 73.2218 290.421 72.5066 290.839 71.912C291.273 71.3013 291.868 70.8272 292.623 70.4897C293.395 70.1522 294.295 69.9834 295.323 69.9834C296.223 69.9834 297.075 70.1281 297.878 70.4173C298.682 70.6905 299.413 71.1405 300.072 71.7673L298.77 73.8164C298.128 73.3182 297.517 72.9566 296.938 72.7316C296.36 72.4905 295.773 72.37 295.178 72.37C294.841 72.37 294.52 72.4102 294.214 72.4905C293.925 72.5709 293.684 72.7075 293.491 72.9003C293.314 73.0771 293.226 73.3343 293.226 73.6718C293.226 73.9771 293.306 74.2182 293.467 74.395C293.644 74.5557 293.901 74.7003 294.238 74.8289C294.592 74.9575 295.018 75.1021 295.516 75.2628C296.528 75.5521 297.38 75.8494 298.071 76.1548C298.778 76.4601 299.309 76.8378 299.662 77.2878C300.016 77.7217 300.193 78.3244 300.193 79.0958C300.193 80.3493 299.735 81.3297 298.819 82.0368C297.903 82.7439 296.673 83.0975 295.13 83.0975ZM303.017 76.4199V65.5719H306.247V76.4199H303.017ZM303.017 82.8564V79.2163H306.247V82.8564H303.017ZM96.7831 110.856V93.7406H104.039C104.827 93.7406 105.55 93.9013 106.209 94.2228C106.868 94.5442 107.438 94.9781 107.92 95.5245C108.419 96.0709 108.804 96.6816 109.078 97.3566C109.351 98.0316 109.487 98.7227 109.487 99.4298C109.487 100.394 109.262 101.31 108.812 102.178C108.362 103.046 107.744 103.753 106.956 104.299C106.169 104.846 105.237 105.119 104.16 105.119H100.11V110.856H96.7831ZM100.11 102.202H103.967C104.369 102.202 104.73 102.09 105.052 101.865C105.373 101.64 105.63 101.318 105.823 100.9C106.016 100.466 106.112 99.9762 106.112 99.4298C106.112 98.8352 106 98.3289 105.775 97.9111C105.566 97.4932 105.285 97.1799 104.931 96.9709C104.594 96.762 104.224 96.6575 103.822 96.6575H100.11V102.202ZM117.064 111.098C116.036 111.098 115.112 110.929 114.292 110.591C113.472 110.238 112.773 109.756 112.195 109.145C111.632 108.534 111.198 107.835 110.893 107.048C110.588 106.26 110.435 105.432 110.435 104.565C110.435 103.681 110.588 102.845 110.893 102.057C111.198 101.27 111.632 100.571 112.195 99.9602C112.773 99.3495 113.472 98.8754 114.292 98.5379C115.112 98.1843 116.036 98.0075 117.064 98.0075C118.093 98.0075 119.009 98.1843 119.812 98.5379C120.632 98.8754 121.331 99.3495 121.91 99.9602C122.488 100.571 122.922 101.27 123.212 102.057C123.517 102.845 123.67 103.681 123.67 104.565C123.67 105.432 123.517 106.26 123.212 107.048C122.922 107.835 122.488 108.534 121.91 109.145C121.347 109.756 120.656 110.238 119.837 110.591C119.017 110.929 118.093 111.098 117.064 111.098ZM113.762 104.565C113.762 105.304 113.906 105.963 114.196 106.541C114.485 107.104 114.879 107.546 115.377 107.867C115.875 108.189 116.437 108.349 117.064 108.349C117.675 108.349 118.229 108.189 118.728 107.867C119.226 107.53 119.62 107.08 119.909 106.517C120.214 105.939 120.367 105.28 120.367 104.54C120.367 103.817 120.214 103.166 119.909 102.588C119.62 102.009 119.226 101.559 118.728 101.238C118.229 100.916 117.675 100.756 117.064 100.756C116.437 100.756 115.875 100.924 115.377 101.262C114.879 101.583 114.485 102.033 114.196 102.612C113.906 103.174 113.762 103.825 113.762 104.565ZM133.371 101.021C132.391 101.021 131.515 101.214 130.744 101.599C129.972 101.969 129.418 102.507 129.08 103.215V110.856H125.85V98.2245H128.815V100.924C129.265 100.057 129.836 99.3736 130.527 98.8754C131.218 98.3772 131.949 98.1039 132.72 98.0557C132.897 98.0557 133.034 98.0557 133.13 98.0557C133.227 98.0557 133.307 98.0638 133.371 98.0798V101.021ZM147.992 110.206C147.719 110.318 147.389 110.447 147.003 110.591C146.618 110.736 146.2 110.848 145.75 110.929C145.316 111.025 144.874 111.073 144.424 111.073C143.829 111.073 143.283 110.969 142.785 110.76C142.287 110.551 141.885 110.222 141.579 109.772C141.29 109.306 141.145 108.703 141.145 107.964V100.707H139.482V98.2245H141.145V94.1263H144.376V98.2245H147.028V100.707H144.376V106.879C144.392 107.313 144.512 107.626 144.737 107.819C144.962 108.012 145.244 108.108 145.581 108.108C145.919 108.108 146.248 108.052 146.569 107.94C146.891 107.827 147.148 107.731 147.341 107.65L147.992 110.206ZM149.554 106.132V98.2245H152.784V105.432C152.784 106.397 152.961 107.128 153.314 107.626C153.668 108.108 154.19 108.349 154.881 108.349C155.299 108.349 155.709 108.269 156.111 108.108C156.529 107.931 156.906 107.674 157.244 107.337C157.597 106.999 157.895 106.573 158.136 106.059V98.2245H161.366V107.24C161.366 107.578 161.422 107.819 161.535 107.964C161.663 108.108 161.864 108.197 162.137 108.229V110.856C161.816 110.905 161.543 110.937 161.318 110.953C161.109 110.985 160.916 111.001 160.739 111.001C160.161 111.001 159.687 110.873 159.317 110.615C158.963 110.342 158.754 109.973 158.69 109.506L158.618 108.494C158.055 109.346 157.332 109.997 156.448 110.447C155.564 110.881 154.592 111.098 153.531 111.098C152.229 111.098 151.241 110.68 150.566 109.844C149.891 108.992 149.554 107.755 149.554 106.132ZM169.229 111.098C168.152 111.098 167.123 110.921 166.143 110.567C165.163 110.214 164.319 109.691 163.612 109L164.769 106.903C165.524 107.514 166.264 107.964 166.987 108.253C167.726 108.542 168.433 108.687 169.108 108.687C169.735 108.687 170.233 108.574 170.603 108.349C170.989 108.124 171.181 107.787 171.181 107.337C171.181 107.032 171.077 106.798 170.868 106.638C170.659 106.461 170.354 106.308 169.952 106.18C169.566 106.051 169.092 105.907 168.53 105.746C167.598 105.44 166.818 105.143 166.191 104.854C165.565 104.565 165.09 104.203 164.769 103.769C164.464 103.319 164.311 102.749 164.311 102.057C164.311 101.222 164.52 100.507 164.938 99.912C165.372 99.3013 165.966 98.8272 166.722 98.4897C167.493 98.1522 168.393 97.9834 169.422 97.9834C170.322 97.9834 171.173 98.1281 171.977 98.4173C172.78 98.6905 173.512 99.1405 174.171 99.7673L172.869 101.816C172.226 101.318 171.615 100.957 171.037 100.732C170.458 100.491 169.872 100.37 169.277 100.37C168.939 100.37 168.618 100.41 168.313 100.491C168.023 100.571 167.782 100.707 167.589 100.9C167.413 101.077 167.324 101.334 167.324 101.672C167.324 101.977 167.405 102.218 167.565 102.395C167.742 102.556 167.999 102.7 168.337 102.829C168.69 102.957 169.116 103.102 169.614 103.263C170.627 103.552 171.479 103.849 172.17 104.155C172.877 104.46 173.407 104.838 173.761 105.288C174.114 105.722 174.291 106.324 174.291 107.096C174.291 108.349 173.833 109.33 172.917 110.037C172.001 110.744 170.772 111.098 169.229 111.098ZM188.162 111.098C187.133 111.098 186.209 110.929 185.389 110.591C184.57 110.238 183.871 109.756 183.292 109.145C182.713 108.518 182.263 107.811 181.942 107.023C181.637 106.236 181.484 105.408 181.484 104.54C181.484 103.351 181.749 102.266 182.28 101.286C182.826 100.29 183.597 99.4941 184.594 98.8995C185.59 98.3048 186.771 98.0075 188.138 98.0075C189.504 98.0075 190.677 98.3048 191.657 98.8995C192.637 99.4941 193.369 100.274 193.851 101.238L190.693 102.202C190.42 101.736 190.058 101.382 189.608 101.141C189.158 100.884 188.66 100.756 188.113 100.756C187.503 100.756 186.94 100.916 186.426 101.238C185.928 101.543 185.534 101.985 185.245 102.564C184.955 103.126 184.811 103.785 184.811 104.54C184.811 105.28 184.955 105.939 185.245 106.517C185.55 107.08 185.952 107.53 186.45 107.867C186.948 108.189 187.503 108.349 188.113 108.349C188.499 108.349 188.861 108.285 189.198 108.156C189.552 108.028 189.865 107.851 190.138 107.626C190.412 107.401 190.612 107.144 190.741 106.855L193.899 107.819C193.61 108.446 193.184 109.008 192.621 109.506C192.075 110.005 191.424 110.398 190.669 110.688C189.929 110.961 189.094 111.098 188.162 111.098ZM201.603 111.098C200.574 111.098 199.65 110.929 198.831 110.591C198.011 110.238 197.312 109.756 196.733 109.145C196.171 108.534 195.737 107.835 195.432 107.048C195.126 106.26 194.973 105.432 194.973 104.565C194.973 103.681 195.126 102.845 195.432 102.057C195.737 101.27 196.171 100.571 196.733 99.9602C197.312 99.3495 198.011 98.8754 198.831 98.5379C199.65 98.1843 200.574 98.0075 201.603 98.0075C202.631 98.0075 203.547 98.1843 204.351 98.5379C205.171 98.8754 205.87 99.3495 206.448 99.9602C207.027 100.571 207.461 101.27 207.75 102.057C208.055 102.845 208.208 103.681 208.208 104.565C208.208 105.432 208.055 106.26 207.75 107.048C207.461 107.835 207.027 108.534 206.448 109.145C205.886 109.756 205.195 110.238 204.375 110.591C203.556 110.929 202.631 111.098 201.603 111.098ZM198.3 104.565C198.3 105.304 198.445 105.963 198.734 106.541C199.023 107.104 199.417 107.546 199.915 107.867C200.414 108.189 200.976 108.349 201.603 108.349C202.214 108.349 202.768 108.189 203.266 107.867C203.764 107.53 204.158 107.08 204.447 106.517C204.753 105.939 204.905 105.28 204.905 104.54C204.905 103.817 204.753 103.166 204.447 102.588C204.158 102.009 203.764 101.559 203.266 101.238C202.768 100.916 202.214 100.756 201.603 100.756C200.976 100.756 200.414 100.924 199.915 101.262C199.417 101.583 199.023 102.033 198.734 102.612C198.445 103.174 198.3 103.825 198.3 104.565ZM230.011 110.856H226.781V103.769C226.781 102.773 226.604 102.041 226.251 101.575C225.913 101.093 225.439 100.852 224.828 100.852C224.202 100.852 223.599 101.101 223.02 101.599C222.458 102.082 222.056 102.716 221.815 103.504V110.856H218.585V103.769C218.585 102.757 218.408 102.017 218.054 101.551C217.717 101.085 217.243 100.852 216.632 100.852C216.005 100.852 215.403 101.093 214.824 101.575C214.262 102.057 213.86 102.692 213.619 103.48V110.856H210.388V98.2245H213.305V100.563C213.788 99.7432 214.43 99.1164 215.234 98.6825C216.037 98.2325 216.962 98.0075 218.006 98.0075C219.051 98.0075 219.862 98.2647 220.441 98.7789C221.036 99.2932 221.413 99.928 221.574 100.683C222.088 99.8155 222.739 99.1566 223.527 98.7066C224.33 98.2406 225.23 98.0075 226.227 98.0075C227.014 98.0075 227.649 98.1522 228.131 98.4414C228.629 98.7147 229.015 99.0923 229.288 99.5745C229.561 100.041 229.746 100.571 229.843 101.166C229.955 101.76 230.011 102.363 230.011 102.974V110.856ZM238.682 111.098C237.669 111.098 236.753 110.929 235.934 110.591C235.114 110.238 234.415 109.764 233.836 109.169C233.258 108.558 232.808 107.867 232.486 107.096C232.181 106.308 232.028 105.481 232.028 104.613C232.028 103.407 232.293 102.307 232.824 101.31C233.37 100.314 234.142 99.5182 235.138 98.9236C236.151 98.3129 237.34 98.0075 238.706 98.0075C240.088 98.0075 241.269 98.3129 242.25 98.9236C243.23 99.5182 243.977 100.314 244.491 101.31C245.022 102.29 245.287 103.351 245.287 104.492C245.287 104.685 245.279 104.886 245.263 105.095C245.247 105.288 245.231 105.448 245.215 105.577H235.451C235.516 106.22 235.701 106.782 236.006 107.265C236.327 107.747 236.729 108.116 237.211 108.373C237.709 108.615 238.24 108.735 238.802 108.735C239.445 108.735 240.048 108.582 240.61 108.277C241.189 107.956 241.583 107.538 241.792 107.023L244.564 107.795C244.258 108.438 243.816 109.008 243.238 109.506C242.675 110.005 242.008 110.398 241.237 110.688C240.466 110.961 239.614 111.098 238.682 111.098ZM235.379 103.528H241.984C241.92 102.885 241.735 102.331 241.43 101.865C241.141 101.382 240.755 101.013 240.273 100.756C239.791 100.482 239.252 100.346 238.658 100.346C238.079 100.346 237.549 100.482 237.067 100.756C236.601 101.013 236.215 101.382 235.909 101.865C235.62 102.331 235.443 102.885 235.379 103.528ZM258.995 110.856H255.765V103.769C255.765 102.757 255.588 102.017 255.234 101.551C254.881 101.085 254.391 100.852 253.764 100.852C253.33 100.852 252.888 100.965 252.438 101.19C252.004 101.415 251.61 101.728 251.257 102.13C250.903 102.515 250.646 102.965 250.485 103.48V110.856H247.255V98.2245H250.172V100.563C250.493 100.016 250.903 99.5584 251.401 99.1888C251.899 98.803 252.47 98.5138 253.113 98.3209C253.772 98.112 254.463 98.0075 255.186 98.0075C255.974 98.0075 256.616 98.1522 257.115 98.4414C257.629 98.7147 258.015 99.0923 258.272 99.5745C258.545 100.041 258.73 100.571 258.826 101.166C258.939 101.76 258.995 102.363 258.995 102.974V110.856ZM269.303 110.206C269.029 110.318 268.7 110.447 268.314 110.591C267.929 110.736 267.511 110.848 267.061 110.929C266.627 111.025 266.185 111.073 265.735 111.073C265.14 111.073 264.594 110.969 264.096 110.76C263.597 110.551 263.196 110.222 262.89 109.772C262.601 109.306 262.456 108.703 262.456 107.964V100.707H260.793V98.2245H262.456V94.1263H265.687V98.2245H268.338V100.707H265.687V106.879C265.703 107.313 265.823 107.626 266.048 107.819C266.273 108.012 266.554 108.108 266.892 108.108C267.229 108.108 267.559 108.052 267.88 107.94C268.202 107.827 268.459 107.731 268.652 107.65L269.303 110.206ZM270.117 107.12C270.117 106.3 270.342 105.585 270.792 104.974C271.258 104.348 271.901 103.865 272.721 103.528C273.54 103.19 274.481 103.022 275.541 103.022C276.072 103.022 276.61 103.062 277.156 103.142C277.703 103.223 278.177 103.351 278.579 103.528V102.853C278.579 102.049 278.338 101.431 277.855 100.997C277.389 100.563 276.69 100.346 275.758 100.346C275.067 100.346 274.408 100.466 273.781 100.707C273.155 100.949 272.496 101.302 271.805 101.768L270.768 99.6468C271.604 99.1004 272.456 98.6905 273.323 98.4173C274.207 98.1441 275.131 98.0075 276.096 98.0075C277.896 98.0075 279.294 98.4575 280.29 99.3575C281.303 100.257 281.809 101.543 281.809 103.215V107.24C281.809 107.578 281.865 107.819 281.978 107.964C282.106 108.108 282.307 108.197 282.58 108.229V110.856C282.291 110.905 282.026 110.945 281.785 110.977C281.56 111.009 281.367 111.025 281.206 111.025C280.563 111.025 280.073 110.881 279.736 110.591C279.414 110.302 279.213 109.948 279.133 109.531L279.061 108.88C278.514 109.587 277.831 110.133 277.012 110.519C276.192 110.905 275.356 111.098 274.505 111.098C273.669 111.098 272.914 110.929 272.239 110.591C271.58 110.238 271.057 109.764 270.672 109.169C270.302 108.558 270.117 107.875 270.117 107.12ZM277.976 107.771C278.153 107.578 278.297 107.385 278.41 107.192C278.522 106.999 278.579 106.823 278.579 106.662V105.384C278.193 105.223 277.775 105.103 277.325 105.023C276.875 104.926 276.449 104.878 276.047 104.878C275.212 104.878 274.521 105.063 273.974 105.432C273.444 105.786 273.179 106.26 273.179 106.855C273.179 107.176 273.267 107.481 273.444 107.771C273.621 108.06 273.878 108.293 274.215 108.47C274.553 108.647 274.955 108.735 275.421 108.735C275.903 108.735 276.377 108.647 276.843 108.47C277.309 108.277 277.687 108.044 277.976 107.771ZM292.349 101.021C291.369 101.021 290.493 101.214 289.721 101.599C288.95 101.969 288.395 102.507 288.058 103.215V110.856H284.828V98.2245H287.793V100.924C288.243 100.057 288.813 99.3736 289.504 98.8754C290.195 98.3772 290.927 98.1039 291.698 98.0557C291.875 98.0557 292.011 98.0557 292.108 98.0557C292.204 98.0557 292.285 98.0638 292.349 98.0798V101.021ZM294.15 110.856V98.2245H297.38V110.856H294.15ZM294.15 96.4647V93.2585H297.38V96.4647H294.15ZM306.128 111.098C305.1 111.098 304.176 110.929 303.356 110.591C302.536 110.238 301.837 109.756 301.259 109.145C300.696 108.534 300.262 107.835 299.957 107.048C299.652 106.26 299.499 105.432 299.499 104.565C299.499 103.681 299.652 102.845 299.957 102.057C300.262 101.27 300.696 100.571 301.259 99.9602C301.837 99.3495 302.536 98.8754 303.356 98.5379C304.176 98.1843 305.1 98.0075 306.128 98.0075C307.157 98.0075 308.073 98.1843 308.877 98.5379C309.696 98.8754 310.395 99.3495 310.974 99.9602C311.552 100.571 311.986 101.27 312.276 102.057C312.581 102.845 312.734 103.681 312.734 104.565C312.734 105.432 312.581 106.26 312.276 107.048C311.986 107.835 311.552 108.534 310.974 109.145C310.411 109.756 309.72 110.238 308.901 110.591C308.081 110.929 307.157 111.098 306.128 111.098ZM302.826 104.565C302.826 105.304 302.97 105.963 303.26 106.541C303.549 107.104 303.943 107.546 304.441 107.867C304.939 108.189 305.502 108.349 306.128 108.349C306.739 108.349 307.294 108.189 307.792 107.867C308.29 107.53 308.684 107.08 308.973 106.517C309.278 105.939 309.431 105.28 309.431 104.54C309.431 103.817 309.278 103.166 308.973 102.588C308.684 102.009 308.29 101.559 307.792 101.238C307.294 100.916 306.739 100.756 306.128 100.756C305.502 100.756 304.939 100.924 304.441 101.262C303.943 101.583 303.549 102.033 303.26 102.612C302.97 103.174 302.826 103.825 302.826 104.565ZM319.567 111.098C318.49 111.098 317.461 110.921 316.481 110.567C315.501 110.214 314.657 109.691 313.95 109L315.107 106.903C315.862 107.514 316.602 107.964 317.325 108.253C318.064 108.542 318.771 108.687 319.446 108.687C320.073 108.687 320.571 108.574 320.941 108.349C321.326 108.124 321.519 107.787 321.519 107.337C321.519 107.032 321.415 106.798 321.206 106.638C320.997 106.461 320.692 106.308 320.29 106.18C319.904 106.051 319.43 105.907 318.868 105.746C317.935 105.44 317.156 105.143 316.529 104.854C315.902 104.565 315.428 104.203 315.107 103.769C314.802 103.319 314.649 102.749 314.649 102.057C314.649 101.222 314.858 100.507 315.276 99.912C315.71 99.3013 316.304 98.8272 317.06 98.4897C317.831 98.1522 318.731 97.9834 319.759 97.9834C320.659 97.9834 321.511 98.1281 322.315 98.4173C323.118 98.6905 323.85 99.1405 324.509 99.7673L323.207 101.816C322.564 101.318 321.953 100.957 321.375 100.732C320.796 100.491 320.209 100.37 319.615 100.37C319.277 100.37 318.956 100.41 318.651 100.491C318.361 100.571 318.12 100.707 317.927 100.9C317.751 101.077 317.662 101.334 317.662 101.672C317.662 101.977 317.743 102.218 317.903 102.395C318.08 102.556 318.337 102.7 318.675 102.829C319.028 102.957 319.454 103.102 319.952 103.263C320.965 103.552 321.817 103.849 322.508 104.155C323.215 104.46 323.745 104.838 324.099 105.288C324.452 105.722 324.629 106.324 324.629 107.096C324.629 108.349 324.171 109.33 323.255 110.037C322.339 110.744 321.109 111.098 319.567 111.098Z" fill="#333333"/>
<path d="M211.194 156.283C218.336 156.283 220.122 149.141 220.122 149.141H202.265C202.265 149.141 204.051 156.283 211.194 156.283Z" fill="#D90062"/>
<path d="M211.194 127.712C201.347 127.712 193.337 135.723 193.337 145.569C193.337 155.416 201.347 163.426 211.194 163.426C221.04 163.426 229.051 155.416 229.051 145.569C229.051 135.723 221.04 127.712 211.194 127.712ZM211.194 159.855C203.317 159.855 196.908 153.446 196.908 145.569C196.908 137.693 203.317 131.284 211.194 131.284C219.07 131.284 225.479 137.693 225.479 145.569C225.479 153.446 219.07 159.855 211.194 159.855Z" fill="#D90062"/>
<path d="M212.979 145.569L216.551 145.591C216.572 144.766 216.897 143.784 218.336 143.784C219.776 143.784 220.101 144.766 220.122 145.569H223.693C223.693 143.416 222.267 140.212 218.336 140.212C214.406 140.212 212.979 143.416 212.979 145.569ZM204.051 143.784C205.49 143.784 205.815 144.766 205.837 145.569H209.408C209.408 143.416 207.981 140.212 204.051 140.212C200.121 140.212 198.694 143.416 198.694 145.569L202.265 145.591C202.287 144.766 202.612 143.784 204.051 143.784Z" fill="#D90062"/>
<defs>
<filter id="filter0_d_66_348" x="0.928803" y="0.928803" width="428.565" height="235.711" filterUnits="userSpaceOnUse" color-interpolation-filters="sRGB">
<feFlood flood-opacity="0" result="BackgroundImageFix"/>
<feColorMatrix in="SourceAlpha" type="matrix" values="0 0 0 0 0 0 0 0 0 0 0 0 0 0 0 0 0 0 127 0" result="hardAlpha"/>
<feOffset dx="5.35707" dy="5.35707"/>
<feGaussianBlur stdDeviation="10.7141"/>
<feColorMatrix type="matrix" values="0 0 0 0 0 0 0 0 0 0 0 0 0 0 0 0 0 0 0.25 0"/>
<feBlend mode="normal" in2="BackgroundImageFix" result="effect1_dropShadow_66_348"/>
<feBlend mode="normal" in="SourceGraphic" in2="effect1_dropShadow_66_348" result="shape"/>
</filter>
</defs>
</svg>
